# xmcd CD database file
#
# Track frame offsets:
#	150
#	6617
#	32372
#	52887
#	63782
#	78907
#	105204
#	121385
#	146832
#	169367
#	193932
#	215010
#	231915
#	253350
#	273942
#	286227
#
# Disc length: 4159 seconds
#
# Revision: 1
# Processed by: cddbd v1.5.2PL0 Copyright (c) Steve Scherf et al.
# Submitted via: CDex 1.51
#
DISCID=e8103d10
DTITLE=The Dutch Swing College Band - Dutch Jazz Masters - At the 'Sportpalast', Berlin
DYEAR=1999
DGENRE=Jazz
TTITLE0=Way down yonder in New Orleans
TTITLE1=Milenberg Joys
TTITLE2=The Last time
TTITLE3=Bye and bye
TTITLE4=Shimme-sha-wabble
TTITLE5=Jada
TTITLE6=Royal Garden Blues
TTITLE7=When you and I were young Maggie
TTITLE8=The lonesome road
TTITLE9=Who's sorry now
TTITLE10=Ballin' the jack
TTITLE11=S-H-I-N-E
TTITLE12=St. James infirmary
TTITLE13=Quena Blues
TTITLE14=St. Louis Blues
TTITLE15=Farewell Blues
EXTD=YEAR: 1999
EXTT0=
EXTT1=
EXTT2=
EXTT3=
EXTT4=
EXTT5=
EXTT6=
EXTT7=
EXTT8=
EXTT9=
EXTT10=
EXTT11=
EXTT12=
EXTT13=
EXTT14=
EXTT15=
PLAYORDER=
